<svg width="558" height="133" viewBox="0 0 558 133" fill="none" xmlns="http://www.w3.org/2000/svg">
<path d="M2.1 103.6C0.699997 103.6 -3.48687e-06 103.087 -3.48687e-06 102.06C-3.48687e-06 101.22 0.606663 100.66 1.82 100.38L5.04 99.8201C7 99.4468 8.26 98.9334 8.82 98.2801C9.47333 97.6268 9.8 96.3201 9.8 94.3601V12.0401C9.8 10.0801 9.47333 8.77343 8.82 8.12009C8.26 7.46676 7 6.95343 5.04 6.5801L1.82 6.02009C0.606663 5.74009 -3.48687e-06 5.18009 -3.48687e-06 4.34009C-3.48687e-06 3.31343 0.699997 2.80009 2.1 2.80009H27.72C29.12 2.80009 29.82 3.36009 29.82 4.4801C29.82 5.32009 29.3067 5.83342 28.28 6.02009L24.5 6.5801C22.54 6.86009 21.2333 7.37342 20.58 8.12009C20.02 8.86676 19.74 10.2201 19.74 12.1801V47.3201C19.74 48.6268 20.3933 49.2801 21.7 49.2801H49.42C50.7267 49.2801 51.38 48.6268 51.38 47.3201V12.1801C51.38 10.2201 51.0533 8.86676 50.4 8.12009C49.84 7.37342 48.58 6.86009 46.62 6.5801L42.84 6.02009C41.8133 5.83342 41.3 5.32009 41.3 4.4801C41.3 3.36009 42 2.80009 43.4 2.80009H69.02C70.42 2.80009 71.12 3.31343 71.12 4.34009C71.12 5.18009 70.5133 5.74009 69.3 6.02009L66.08 6.5801C64.12 6.95343 62.8133 7.46676 62.16 8.12009C61.6 8.77343 61.32 10.0801 61.32 12.0401V94.3601C61.32 96.3201 61.6 97.6268 62.16 98.2801C62.8133 98.9334 64.12 99.4468 66.08 99.8201L69.3 100.38C70.5133 100.66 71.12 101.22 71.12 102.06C71.12 103.087 70.42 103.6 69.02 103.6H43.4C42 103.6 41.3 103.04 41.3 101.92C41.3 101.08 41.8133 100.567 42.84 100.38L46.62 99.8201C48.58 99.5401 49.84 99.0268 50.4 98.2801C51.0533 97.5334 51.38 96.1801 51.38 94.2201V55.4401C51.38 54.1334 50.7267 53.4801 49.42 53.4801H21.7C20.3933 53.4801 19.74 54.1334 19.74 55.4401V94.2201C19.74 96.1801 20.02 97.5334 20.58 98.2801C21.2333 99.0268 22.54 99.5401 24.5 99.8201L28.28 100.38C29.3067 100.567 29.82 101.08 29.82 101.92C29.82 103.04 29.12 103.6 27.72 103.6H2.1ZM99.7248 104.86C94.9648 104.86 90.6715 103.273 86.8448 100.1C83.1115 96.8334 80.1248 92.4001 77.8848 86.8001C75.6448 81.2001 74.5248 74.9468 74.5248 68.0401C74.5248 61.1334 75.6448 54.9268 77.8848 49.4201C80.1248 43.9134 83.1582 39.5268 86.9848 36.2601C90.8115 32.9934 95.0582 31.3601 99.7248 31.3601C104.485 31.3601 108.732 32.9934 112.465 36.2601C116.292 39.5268 119.325 43.9134 121.565 49.4201C123.805 54.9268 124.925 61.1334 124.925 68.0401C124.925 74.9468 123.805 81.2001 121.565 86.8001C119.418 92.4001 116.432 96.8334 112.605 100.1C108.778 103.273 104.485 104.86 99.7248 104.86ZM99.7248 101.36C109.432 101.36 114.285 90.2534 114.285 68.0401C114.285 45.9201 109.432 34.8601 99.7248 34.8601C90.0182 34.8601 85.1648 45.9201 85.1648 68.0401C85.1648 90.2534 90.0182 101.36 99.7248 101.36ZM157.293 104.86C153.467 104.86 149.78 103.647 146.233 101.22C144.18 99.8201 142.313 100.193 140.633 102.34C139.7 103.367 139 104.02 138.533 104.3C138.067 104.673 137.6 104.86 137.133 104.86C136.107 104.86 135.733 104.207 136.013 102.9C136.387 100.753 136.667 98.0001 136.853 94.6401C137.04 91.2801 137.133 86.8001 137.133 81.2001V14.0001C137.133 12.3201 136.853 11.2001 136.293 10.6401C135.827 9.98676 134.94 9.56676 133.633 9.38009L130.693 8.96009C129.667 8.77343 129.153 8.21343 129.153 7.28009C129.153 6.34676 129.667 5.78676 130.693 5.60009C133.307 5.04009 135.5 4.38676 137.273 3.64009C139.047 2.89342 140.54 2.14676 141.753 1.40009C143.247 0.466763 144.367 9.63211e-05 145.113 9.63211e-05C146.14 9.63211e-05 146.653 0.746762 146.653 2.24009V36.8201C146.653 37.5668 146.933 38.0801 147.493 38.3601C148.147 38.5468 148.847 38.2668 149.593 37.5201C153.607 33.4134 157.993 31.3601 162.753 31.3601C167.047 31.3601 170.827 32.8068 174.093 35.7001C177.453 38.5001 180.067 42.4201 181.933 47.4601C183.893 52.5001 184.873 58.4268 184.873 65.2401C184.873 72.9868 183.66 79.8468 181.233 85.8201C178.807 91.7934 175.493 96.4601 171.293 99.8201C167.187 103.18 162.52 104.86 157.293 104.86ZM157.013 101.36C162.24 101.36 166.44 98.2801 169.613 92.1201C172.88 85.9601 174.513 77.6534 174.513 67.2001C174.513 57.5868 173.113 50.2601 170.313 45.2201C167.513 40.1801 163.547 37.6601 158.413 37.6601C155.24 37.6601 152.487 38.9668 150.153 41.5801C147.82 44.1934 146.653 47.8334 146.653 52.5001V87.7801C146.653 91.9801 147.587 95.2934 149.453 97.7201C151.413 100.147 153.933 101.36 157.013 101.36ZM219.364 104.86C215.537 104.86 211.85 103.647 208.304 101.22C206.25 99.8201 204.384 100.193 202.704 102.34C201.77 103.367 201.07 104.02 200.604 104.3C200.137 104.673 199.67 104.86 199.204 104.86C198.177 104.86 197.804 104.207 198.084 102.9C198.457 100.753 198.737 98.0001 198.924 94.6401C199.11 91.2801 199.204 86.8001 199.204 81.2001V14.0001C199.204 12.3201 198.924 11.2001 198.364 10.6401C197.897 9.98676 197.01 9.56676 195.704 9.38009L192.764 8.96009C191.737 8.77343 191.224 8.21343 191.224 7.28009C191.224 6.34676 191.737 5.78676 192.764 5.60009C195.377 5.04009 197.57 4.38676 199.344 3.64009C201.117 2.89342 202.61 2.14676 203.824 1.40009C205.317 0.466763 206.437 9.63211e-05 207.184 9.63211e-05C208.21 9.63211e-05 208.724 0.746762 208.724 2.24009V36.8201C208.724 37.5668 209.004 38.0801 209.564 38.3601C210.217 38.5468 210.917 38.2668 211.664 37.5201C215.677 33.4134 220.064 31.3601 224.824 31.3601C229.117 31.3601 232.897 32.8068 236.164 35.7001C239.524 38.5001 242.137 42.4201 244.004 47.4601C245.964 52.5001 246.944 58.4268 246.944 65.2401C246.944 72.9868 245.73 79.8468 243.304 85.8201C240.877 91.7934 237.564 96.4601 233.364 99.8201C229.257 103.18 224.59 104.86 219.364 104.86ZM219.084 101.36C224.31 101.36 228.51 98.2801 231.684 92.1201C234.95 85.9601 236.584 77.6534 236.584 67.2001C236.584 57.5868 235.184 50.2601 232.384 45.2201C229.584 40.1801 225.617 37.6601 220.484 37.6601C217.31 37.6601 214.557 38.9668 212.224 41.5801C209.89 44.1934 208.724 47.8334 208.724 52.5001V87.7801C208.724 91.9801 209.657 95.2934 211.524 97.7201C213.484 100.147 216.004 101.36 219.084 101.36ZM263.12 132.3C260.6 132.3 258.593 131.413 257.1 129.64C255.607 127.96 254.86 126 254.86 123.76C254.86 121.987 255.373 120.493 256.4 119.28C257.427 118.067 258.827 117.46 260.6 117.46C262.093 117.46 263.167 117.787 263.82 118.44C264.473 119.093 264.94 119.84 265.22 120.68C265.5 121.52 265.78 122.267 266.06 122.92C266.34 123.573 266.9 123.9 267.74 123.9C268.767 123.9 269.7 123.153 270.54 121.66C271.38 120.26 272.547 117.227 274.04 112.56C274.973 109.76 275.533 107.333 275.72 105.28C276 103.227 275.953 101.033 275.58 98.7001C275.3 96.3668 274.6 93.5201 273.48 90.1601L258.22 41.5801C257.567 39.3401 256.913 37.8934 256.26 37.2401C255.7 36.5868 254.767 36.1201 253.46 35.8401L251.36 35.4201C250.147 35.1401 249.54 34.5334 249.54 33.6001C249.54 32.6668 250.193 32.2001 251.5 32.2001H274.6C275.907 32.2001 276.56 32.6668 276.56 33.6001C276.56 34.6268 275.953 35.2334 274.74 35.4201L272.5 35.7001C270.26 35.9801 268.813 36.5401 268.16 37.3801C267.6 38.1268 267.647 39.5268 268.3 41.5801L280.62 82.6001C280.9 83.5334 281.32 84.0001 281.88 84.0001C282.533 84.0001 283 83.5334 283.28 82.6001L295.18 44.1001C295.927 41.5801 296.113 39.7134 295.74 38.5001C295.46 37.1934 294.153 36.3534 291.82 35.9801L288.88 35.4201C287.667 35.1401 287.06 34.5334 287.06 33.6001C287.06 32.6668 287.713 32.2001 289.02 32.2001H306.8C308.107 32.2001 308.76 32.7134 308.76 33.7401C308.76 34.6734 308.2 35.3268 307.08 35.7001L305.82 36.1201C304.42 36.5868 303.253 37.4268 302.32 38.6401C301.387 39.8534 300.407 41.9534 299.38 44.9401L278.52 110.04C276.467 116.573 274.6 121.427 272.92 124.6C271.333 127.773 269.793 129.827 268.3 130.76C266.807 131.787 265.08 132.3 263.12 132.3ZM328.832 104.86C324.258 104.86 320.852 103.133 318.612 99.6801C316.372 96.2268 315.952 91.7934 317.352 86.3801L328.132 45.9201C329.345 41.5334 328.598 39.3401 325.892 39.3401C323.932 39.3401 321.972 40.7401 320.012 43.5401C318.145 46.3401 316.092 50.9134 313.852 57.2601C313.478 58.3801 312.825 58.9401 311.892 58.9401C311.425 58.9401 311.052 58.7534 310.772 58.3801C310.492 57.9134 310.445 57.3534 310.632 56.7001C316.045 39.8068 322.812 31.3601 330.932 31.3601C334.105 31.3601 336.252 32.6668 337.372 35.2801C338.492 37.8934 338.445 41.4868 337.232 46.0601L326.172 87.7801C325.145 91.7001 325.052 94.7334 325.892 96.8801C326.825 98.9334 328.458 99.9601 330.792 99.9601C333.498 99.9601 336.345 98.6534 339.332 96.0401C342.412 93.4268 345.305 90.0201 348.012 85.8201C350.718 81.6201 352.912 77.0001 354.592 71.9601C356.272 66.9201 357.112 61.9734 357.112 57.1201C357.112 53.2001 356.692 50.1201 355.852 47.8801C355.012 45.5468 354.125 43.5868 353.192 42.0001C352.352 40.4134 351.932 38.6868 351.932 36.8201C351.932 33.1801 353.518 31.3601 356.692 31.3601C361.172 31.3601 363.412 36.3068 363.412 46.2001C363.412 53.2934 362.385 60.3401 360.332 67.3401C358.278 74.2468 355.572 80.5468 352.212 86.2401C348.852 91.8401 345.118 96.3668 341.012 99.8201C336.998 103.18 332.938 104.86 328.832 104.86ZM383.447 104.86C378.5 104.86 374.534 102.947 371.547 99.1201C368.56 95.2001 367.067 89.6934 367.067 82.6001C367.067 76.4401 368.14 70.3268 370.287 64.2601C372.527 58.1934 375.42 52.6868 378.967 47.7401C382.514 42.7934 386.387 38.8268 390.587 35.8401C394.88 32.8534 399.034 31.3601 403.047 31.3601C407.434 31.3601 410.56 32.4334 412.427 34.5801C414.387 36.6334 415.367 39.4334 415.367 42.9801C415.367 47.1801 413.874 51.3801 410.887 55.5801C407.994 59.6868 403.887 63.3734 398.567 66.6401C393.34 69.9068 387.18 72.3334 380.087 73.9201C378.034 74.3868 376.96 75.5534 376.867 77.4201C376.774 78.0734 376.727 78.7734 376.727 79.5201C376.727 80.1734 376.727 80.8268 376.727 81.4801C376.727 86.8001 377.614 90.8134 379.387 93.5201C381.254 96.2268 383.774 97.5801 386.947 97.5801C390.494 97.5801 393.9 95.9468 397.167 92.6801C400.527 89.4134 403.327 84.7934 405.567 78.8201C405.847 77.9801 406.407 77.5601 407.247 77.5601C407.807 77.5601 408.134 77.7934 408.227 78.2601C408.414 78.7268 408.414 79.2868 408.227 79.9401C405.24 88.1534 401.6 94.3601 397.307 98.5601C393.107 102.76 388.487 104.86 383.447 104.86ZM378.267 68.6001C378.08 69.2534 378.174 69.8134 378.547 70.2801C379.014 70.6534 379.574 70.7468 380.227 70.5601C386.014 68.9734 390.867 66.5934 394.787 63.4201C398.707 60.1534 401.647 56.5134 403.607 52.5001C405.66 48.4868 406.687 44.5668 406.687 40.7401C406.687 36.8201 405.147 34.8601 402.067 34.8601C399.36 34.8601 396.42 36.4468 393.247 39.6201C390.074 42.7934 387.134 46.9468 384.427 52.0801C381.72 57.2134 379.667 62.7201 378.267 68.6001ZM423.019 103.6C421.712 103.6 421.199 102.993 421.479 101.78L434.779 45.9201C435.245 43.8668 435.292 42.2801 434.919 41.1601C434.639 39.9468 433.799 39.3401 432.399 39.3401C430.719 39.3401 428.852 40.6001 426.799 43.1201C424.839 45.5468 422.599 50.2134 420.079 57.1201C419.705 58.3334 419.052 58.9401 418.119 58.9401C416.719 58.9401 416.345 58.1001 416.999 56.4201C419.052 49.9801 421.199 44.9401 423.439 41.3001C425.772 37.6601 428.105 35.0934 430.439 33.6001C432.772 32.1068 434.919 31.3601 436.879 31.3601C439.959 31.3601 442.152 32.5268 443.459 34.8601C444.765 37.1001 444.812 40.8334 443.599 46.0601L442.059 52.6401C441.965 53.2934 442.105 53.6668 442.479 53.7601C442.852 53.8534 443.179 53.6201 443.459 53.0601C447.005 44.9401 450.225 39.2934 453.119 36.1201C456.012 32.9468 459.325 31.3601 463.059 31.3601C465.579 31.3601 467.445 32.0601 468.659 33.4601C469.965 34.7668 470.619 36.5868 470.619 38.9201C470.619 41.2534 470.059 43.1201 468.939 44.5201C467.819 45.9201 466.372 46.6201 464.599 46.6201C463.105 46.6201 462.032 46.2468 461.379 45.5001C460.725 44.7534 460.212 43.9134 459.839 42.9801C459.559 41.9534 459.232 41.0668 458.859 40.3201C458.485 39.5734 457.879 39.2001 457.039 39.2001C455.639 39.2001 453.819 40.9734 451.579 44.5201C449.339 48.0668 446.912 52.8734 444.299 58.9401C441.779 64.9134 439.305 71.6334 436.879 79.1001C434.545 86.5668 432.492 94.2201 430.719 102.06C430.439 103.087 429.785 103.6 428.759 103.6H423.019ZM481.842 104.86C478.762 104.86 475.495 104.393 472.042 103.46C468.682 102.527 466.115 101.36 464.342 99.9601C463.688 99.4001 463.408 98.5601 463.502 97.4401L466.582 79.1001C466.768 77.8868 467.328 77.2801 468.262 77.2801C469.288 77.2801 469.802 77.9334 469.802 79.2401L470.082 85.9601C470.268 91.2801 471.528 95.2001 473.862 97.7201C476.288 100.147 479.228 101.36 482.682 101.36C485.668 101.36 488.235 100.427 490.382 98.5601C492.528 96.6001 493.602 93.7534 493.602 90.0201C493.602 87.8734 493.275 85.9134 492.622 84.1401C491.968 82.2734 490.942 80.3134 489.542 78.2601C488.142 76.1134 486.228 73.5468 483.802 70.5601C480.628 66.4534 478.248 62.9534 476.662 60.0601C475.168 57.0734 474.422 53.9934 474.422 50.8201C474.422 44.9401 476.242 40.2268 479.882 36.6801C483.615 33.1334 488.328 31.3601 494.022 31.3601C496.542 31.3601 498.968 31.7334 501.302 32.4801C503.728 33.2268 505.735 34.3468 507.322 35.8401C508.162 36.4934 508.442 37.3334 508.162 38.3601L504.242 57.1201C503.962 58.3334 503.402 58.9401 502.562 58.9401C501.722 58.9401 501.208 58.2868 501.022 56.9801L500.602 50.2601C500.228 44.6601 499.482 40.6468 498.362 38.2201C497.335 35.7934 495.142 34.5801 491.782 34.5801C488.795 34.5801 486.368 35.6068 484.502 37.6601C482.635 39.7134 481.702 42.1868 481.702 45.0801C481.702 48.1601 482.542 51.0068 484.222 53.6201C485.902 56.1401 488.188 59.3601 491.082 63.2801C494.908 68.3201 497.475 72.3334 498.782 75.3201C500.182 78.3068 500.882 81.3401 500.882 84.4201C500.882 88.3401 499.995 91.8401 498.222 94.9201C496.542 98.0001 494.255 100.427 491.362 102.2C488.468 103.973 485.295 104.86 481.842 104.86ZM525.908 104.86C520.961 104.86 516.994 102.947 514.008 99.1201C511.021 95.2001 509.528 89.6934 509.528 82.6001C509.528 76.4401 510.601 70.3268 512.748 64.2601C514.988 58.1934 517.881 52.6868 521.428 47.7401C524.974 42.7934 528.848 38.8268 533.048 35.8401C537.341 32.8534 541.494 31.3601 545.508 31.3601C549.894 31.3601 553.021 32.4334 554.888 34.5801C556.848 36.6334 557.828 39.4334 557.828 42.9801C557.828 47.1801 556.334 51.3801 553.348 55.5801C550.454 59.6868 546.348 63.3734 541.028 66.6401C535.801 69.9068 529.641 72.3334 522.548 73.9201C520.494 74.3868 519.421 75.5534 519.328 77.4201C519.234 78.0734 519.188 78.7734 519.188 79.5201C519.188 80.1734 519.188 80.8268 519.188 81.4801C519.188 86.8001 520.074 90.8134 521.848 93.5201C523.714 96.2268 526.234 97.5801 529.408 97.5801C532.954 97.5801 536.361 95.9468 539.628 92.6801C542.988 89.4134 545.788 84.7934 548.028 78.8201C548.308 77.9801 548.868 77.5601 549.708 77.5601C550.268 77.5601 550.594 77.7934 550.688 78.2601C550.874 78.7268 550.874 79.2868 550.688 79.9401C547.701 88.1534 544.061 94.3601 539.768 98.5601C535.568 102.76 530.948 104.86 525.908 104.86ZM520.728 68.6001C520.541 69.2534 520.634 69.8134 521.008 70.2801C521.474 70.6534 522.034 70.7468 522.688 70.5601C528.474 68.9734 533.328 66.5934 537.248 63.4201C541.168 60.1534 544.108 56.5134 546.068 52.5001C548.121 48.4868 549.148 44.5668 549.148 40.7401C549.148 36.8201 547.608 34.8601 544.528 34.8601C541.821 34.8601 538.881 36.4468 535.708 39.6201C532.534 42.7934 529.594 46.9468 526.888 52.0801C524.181 57.2134 522.128 62.7201 520.728 68.6001Z" fill="white"/>
</svg>
